<svg xmlns="http://www.w3.org/2000/svg" width="28.03" height="26.03" viewBox="0 0 28.03 26.03">
  <defs>
    <style>
      .cls-1 {
        fill: #0f0f0f;
        fill-rule: evenodd;
      }
    </style>
  </defs>
  <path id="Shape_copy" data-name="Shape copy" class="cls-1" d="M1214.42,2917a1.224,1.224,0,0,0-1,.52l-5.52,7.91h-5.68a1.227,1.227,0,0,0-.97.48,1.2,1.2,0,0,0-.21,1.05l3.12,11.16a2.436,2.436,0,0,0,2.35,1.77h7.41a3.586,3.586,0,0,1,.12-4.97,3.695,3.695,0,0,1,5.16,0l1.78,1.77,4.22-4.18a3.533,3.533,0,0,1,1.33-.82l1.21-4.73a1.224,1.224,0,0,0-.2-1.05,1.242,1.242,0,0,0-.97-0.48h-5.68l-5.46-7.91a1.237,1.237,0,0,0-1-.52h-0.01Zm0,3.33,3.52,5.1h-7.08Zm13.36,13.54a1.2,1.2,0,0,0-.86.35l-5.94,5.87-3.5-3.46a1.225,1.225,0,0,0-1.72,0,1.2,1.2,0,0,0,0,1.7l4.36,4.32a1.238,1.238,0,0,0,1.73,0l6.79-6.73A1.2,1.2,0,0,0,1227.78,2933.87Z" transform="translate(-1201 -2917)"/>
</svg>
