<svg xmlns="http://www.w3.org/2000/svg" width="26" height="26" viewBox="0 0 26 26">
  <defs>
    <style>
      .cls-1 {
        fill: #0f0f0f;
        fill-rule: evenodd;
      }
    </style>
  </defs>
  <path id="Shape" class="cls-1" d="M993,2917a13,13,0,1,0,13,13A13,13,0,0,0,993,2917Zm6.391,5.89a0.653,0.653,0,0,1,.659.92l-3.8,8.17a2.6,2.6,0,0,1-1.262,1.27l-8.17,3.8a0.654,0.654,0,0,1-.864-0.87l3.8-8.17a2.632,2.632,0,0,1,1.262-1.26l8.171-3.8A0.814,0.814,0,0,1,999.391,2922.89ZM993,2928.57a1.43,1.43,0,1,0,1.429,1.43A1.428,1.428,0,0,0,993,2928.57Z" transform="translate(-980 -2917)"/>
</svg>
