<svg width="52" height="52" viewBox="0 0 52 52" fill="none" xmlns="http://www.w3.org/2000/svg">
<rect width="52" height="52" rx="26" fill="white"/>
<path d="M36.1973 23.9633H35.3596V23.9201H25.9996V28.0801H31.8772C31.0197 30.5017 28.7156 32.2401 25.9996 32.2401C22.5536 32.2401 19.7596 29.4461 19.7596 26.0001C19.7596 22.5541 22.5536 19.7601 25.9996 19.7601C27.5903 19.7601 29.0374 20.3602 30.1393 21.3404L33.081 18.3987C31.2235 16.6677 28.739 15.6001 25.9996 15.6001C20.2562 15.6001 15.5996 20.2567 15.5996 26.0001C15.5996 31.7435 20.2562 36.4001 25.9996 36.4001C31.743 36.4001 36.3996 31.7435 36.3996 26.0001C36.3996 25.3028 36.3278 24.6221 36.1973 23.9633Z" fill="#FFC107"/>
<path d="M16.7988 21.1594L20.2157 23.6653C21.1403 21.3763 23.3794 19.7601 25.9997 19.7601C27.5904 19.7601 29.0375 20.3602 30.1394 21.3404L33.0811 18.3987C31.2236 16.6677 28.7391 15.6001 25.9997 15.6001C22.0051 15.6001 18.5408 17.8553 16.7988 21.1594Z" fill="#FF3D00"/>
<path d="M26.0008 36.4003C28.6871 36.4003 31.128 35.3723 32.9735 33.7005L29.7547 30.9767C28.6754 31.7975 27.3567 32.2414 26.0008 32.2403C23.2957 32.2403 20.9989 30.5155 20.1336 28.1084L16.7422 30.7214C18.4634 34.0894 21.9588 36.4003 26.0008 36.4003Z" fill="#4CAF50"/>
<path d="M36.1977 23.9631H35.36V23.9199H26V28.0799H31.8776C31.4674 29.2325 30.7285 30.2396 29.7523 30.9768L29.7539 30.9758L32.9727 33.6996C32.7449 33.9065 36.4 31.1999 36.4 25.9999C36.4 25.3026 36.3282 24.6219 36.1977 23.9631Z" fill="#1976D2"/>
</svg>
