<svg width="24" height="24" viewBox="0 0 24 24" fill="none" xmlns="http://www.w3.org/2000/svg">
<path d="M12.1875 4C13.8486 4 15.385 4.30952 16.7966 4.92856C18.2083 5.54759 19.3242 6.38935 20.1445 7.45383C20.9648 8.51832 21.375 9.67942 21.375 10.9371C21.375 12.1949 20.9648 13.3576 20.1445 14.4254C19.3242 15.4931 18.21 16.3365 16.8018 16.9556C15.3936 17.5746 13.8555 17.8841 12.1875 17.8841C11.6611 17.8841 11.1177 17.8481 10.5571 17.776C8.12354 19.394 6.82812 20.2129 6.6709 20.2325C6.5957 20.2587 6.52393 20.2555 6.45557 20.2227C6.42822 20.2031 6.40771 20.1769 6.39404 20.1441C6.38037 20.1113 6.37354 20.0819 6.37354 20.0557V20.0164C6.41455 19.7609 6.72559 18.6964 7.30664 16.8229C5.9873 16.1941 4.9397 15.3605 4.16382 14.3222C3.38794 13.2839 3 12.1556 3 10.9371C3 9.67942 3.41016 8.51832 4.23047 7.45383C5.05078 6.38935 6.16675 5.54759 7.57837 4.92856C8.98999 4.30952 10.5264 4 12.1875 4Z" fill="#3C1E1E"/>
</svg>
