<svg width="52" height="52" viewBox="0 0 52 52" fill="none" xmlns="http://www.w3.org/2000/svg">
<rect width="52" height="52" rx="26" fill="#FFCA42"/>
<path d="M26.5 16C28.5792 16 30.5023 16.4 32.2693 17.2C34.0362 18 35.433 19.0878 36.4598 20.4634C37.4866 21.8391 38 23.3396 38 24.9649C38 26.5903 37.4866 28.0929 36.4598 29.4728C35.433 30.8527 34.0383 31.9426 32.2757 32.7426C30.513 33.5426 28.5878 33.9426 26.5 33.9426C25.8411 33.9426 25.1609 33.896 24.4593 33.8029C21.4131 35.8938 19.7917 36.952 19.5949 36.9774C19.5007 37.0113 19.4109 37.0071 19.3253 36.9647C19.2911 36.9393 19.2654 36.9055 19.2483 36.8631C19.2312 36.8208 19.2227 36.7827 19.2227 36.7489V36.6981C19.274 36.3679 19.6633 34.9923 20.3906 32.5712C18.7392 31.7585 17.4279 30.6812 16.4568 29.3395C15.4856 27.9977 15 26.5395 15 24.9649C15 23.3396 15.5134 21.8391 16.5402 20.4634C17.567 19.0878 18.9638 18 20.7307 17.2C22.4977 16.4 24.4208 16 26.5 16Z" fill="#3C1E1E"/>
</svg>
