<svg width="21" height="20" viewBox="0 0 21 20" fill="none" xmlns="http://www.w3.org/2000/svg">
<path d="M5.5 9.0001H3.097C2.04266 8.98145 1.14135 9.8548 1 10.8998V17.1998C1.14135 18.2448 2.04266 19.0184 3.097 18.9998C3.898 18.9999 4.699 18.9999 5.5 19M5.5 9.0001L9.1 1C10.5912 1 11.8 2.20883 11.8 3.7V7.3H17.2C17.7281 7.294 18.2321 7.52025 18.5786 7.91875C18.9252 8.3173 19.0793 8.84785 19 9.37L17.758 17.47C17.6234 18.3574 16.8556 19.0102 15.958 19C12.472 19.0001 8.986 19.0001 5.5 19M5.5 9.0001V19" stroke="white" stroke-width="2" stroke-linejoin="round"/>
</svg>
