<svg xmlns="http://www.w3.org/2000/svg" width="26" height="26" viewBox="0 0 26 26">
  <defs>
    <style>
      .cls-1 {
        fill: #0f0f0f;
        fill-rule: evenodd;
      }
    </style>
  </defs>
  <path id="Shape" class="cls-1" d="M2491,2006a12.991,12.991,0,1,0,2.86,25.66,1.316,1.316,0,0,0,1.04-1.28v-1.88a0.885,0.885,0,0,0-1.17-.84,8.982,8.982,0,0,1-2.99.42,9.22,9.22,0,0,1-8.84-9.08,9.107,9.107,0,0,1,9.1-9.1,1.086,1.086,0,0,0,1.05-.76,11.418,11.418,0,0,1,1.17-2.31,0.429,0.429,0,0,0-.28-0.66A11.376,11.376,0,0,0,2491,2006Zm7.8,0a3.508,3.508,0,0,0-2.41,1.07,7.575,7.575,0,0,0-1.5,2.07,10.618,10.618,0,0,0-1.29,4.65,5.2,5.2,0,0,0,3.9,5.01v11.88a1.3,1.3,0,1,0,2.6,0V2018.8a5.2,5.2,0,0,0,3.9-5.01,10.618,10.618,0,0,0-1.29-4.65,7.575,7.575,0,0,0-1.5-2.07A3.508,3.508,0,0,0,2498.8,2006Zm-8.52,6.57a1.5,1.5,0,0,0-.3,0,6.5,6.5,0,0,0-.42,12.76,6.379,6.379,0,0,0,4.45-.61,1.69,1.69,0,0,0,.89-1.5v-1.71a1.744,1.744,0,0,0-.69-1.43,7.766,7.766,0,0,1-3.21-6.29c0-.11.01-0.23,0.01-0.36A0.76,0.76,0,0,0,2490.28,2012.57Z" transform="translate(-2478 -2006)"/>
</svg>
