<svg xmlns="http://www.w3.org/2000/svg" width="26" height="26" viewBox="0 0 26 26">
  <defs>
    <style>
      .cls-1 {
        fill: #0f0f0f;
        fill-rule: evenodd;
      }
    </style>
  </defs>
  <path id="Shape" class="cls-1" d="M1286,2917a13,13,0,1,0,13,13A13,13,0,0,0,1286,2917Zm0,3.57a4.225,4.225,0,1,1-4.23,4.23A4.229,4.229,0,0,1,1286,2920.57Zm7.92,16.17a10.388,10.388,0,0,1-15.83,0,1.313,1.313,0,0,1,.22-1.91c1.97-1.48,5.57-2.23,7.69-2.23s5.72,0.75,7.69,2.23A1.322,1.322,0,0,1,1293.92,2936.74Z" transform="translate(-1273 -2917)"/>
</svg>
